<?xml version="1.0" encoding="UTF-8" standalone="no"?>
<svg version="1.1" xmlns="http://www.w3.org/2000/svg" x="0" y="0" viewBox="0 0 800 290" id="logo">
	<defs>
		<linearGradient id="gradient" x1="0%" y1="0%" x2="100%" y2="0%">
			<stop style="stop-color:#4c4ecc" offset="0" />
			<stop style="stop-color:#6c6eec" offset="0.6" stop-opacity="1">
				  <animate attributeName="offset" dur="5s" values="0.7;0.4;0.7" repeatCount="indefinite" />
			</stop>
			<stop style="stop-color:#6c6eec" offset="1" />
		</linearGradient>
	</defs>

	<animateTransform xlink:href="#swimmer" attributeName="transform" type="translate" from="-400 0" to="0 0" dur="1s"/>
	<animateTransform xlink:href="#swimmer" attributeName="transform" type="translate" from="-400 0" to="0 0" dur="1s" begin="click"/>

	<path class="s" fill="url(#gradient)" d=" M10,130 a20,20 0 0 1 20,-20 h80 v20 h-60 v10 h60 v50 l-20,20 h-80 v-20 h40 v-20 h-40 z" />
	<path class="w" fill="url(#gradient)" d="M115,130 a20,20 0 0 1 20,-20 h10 v50 h20 v-30 h5 v-20 h1 v20 h4 v30 h20 v-50 h50 v80 l-20,20 h-110 z" />
	<path class="i" fill="url(#gradient)" d="M250,130 a20,20 0 0 1 20,-20 h40 v80 l-20,20 h-40 z" />
	<path class="m" fill="url(#gradient)" d="M315,130 a20,20 0 0 1 20,-20 h110 v80 l-20,20 h-30 v-50 h-20 v30 h-4 v20 h-1 v-20 h-5 v-30 h-20 v50 h-30 z" />
	<path class="m" fill="url(#gradient)" d="M450,130 a20,20 0 0 1 20,-20 h110 v80 l-20,20 h-30 v-50 h-20 v30 h-4 v20 h-1 v-20 h-5 v-30 h-20 v50 h-30 z" />
	<path class="e" fill="url(#gradient)" d="M585,130 a20,20 0 0 1 20,-20 h80 v60 h-40 v-30 h20 v-10 h-20 v60 h40 h0 l-20,20 h-80 z" />
	<path class="r" fill="url(#gradient)" d="M690,130 a20,20 0 0 1 20,-20 h80 v20 h-40 v80 h-60 z" />

	<g id="swimmer">
		<path stroke="#FFFFFF" stroke-width="2" fill="#6c6eec" d="m198.334641,2.934293c-5.528014,0.664355 -5.396479,1.558495 0.686114,4.68382c16.317417,8.383013 23.330232,19.092458 23.385927,35.703706c0.086505,26.021749 -14.531625,37.427695 -50.728561,39.577918c-21.405796,1.272751 -24.29245,1.575164 -32.308959,3.378922c-20.841737,4.693344 -44.773948,19.080552 -53.63773,32.246204c-2.925759,4.345689 -1.087828,4.048039 6.426242,-1.040584c18.836721,-12.760848 51.753584,-20.447361 73.248255,-17.107728c9.489461,1.475153 19.37945,4.488561 37.572718,11.447617c48.756725,18.653127 74.968871,20.390212 106.099943,7.035254c10.705268,-4.592143 26.7134,-15.773066 25.020039,-17.473242c-0.449114,-0.452428 -0.398159,-0.472668 -10.712378,4.071851c-17.747709,7.819859 -33.780726,9.361686 -48.184371,4.632624c-22.908373,-7.522209 -32.983222,-26.814688 -27.874698,-53.379351c3.442418,-17.90424 1.398297,-28.431523 -7.623089,-39.268362c-8.197813,-9.847451 -26.560536,-16.288596 -41.36945,-14.508649"/>
	  	<path fill="#4c4ecc" d="m273.708985,52.337018c-21.01423,6.01332 -21.718753,35.242361 -1.022658,42.388241c17.120263,5.909204 33.86455,-11.104629 27.875523,-28.325539c-3.778281,-10.862847 -15.883588,-17.2024 -26.852865,-14.062702"/>
	  	<path stroke="#FFFFFF" stroke-width="1" fill="#2c2ebc" d="m336.325895,98.397582c-0.656133,0.624519 -2.195616,2.329114 -3.419182,3.788821c-8.119039,9.665075 -21.953726,18.383747 -36.715505,23.13822c-2.211411,0.712208 -5.46656,1.763411 -7.23569,2.33553c-18.450705,5.976776 -48.003423,5.26029 -75.969272,-1.838268c-12.843197,-3.260546 -16.551564,-4.255071 -26.127461,-7.005522c-16.482305,-4.736293 -18.231994,-5.215376 -24.385063,-6.683638c-30.837039,-7.360557 -52.292589,-7.85675 -76.303414,-1.762342c-4.575921,1.161349 -10.851712,3.61772 -12.460453,4.877452l-1.004856,0.787065l2.009711,-0.180726c1.105706,-0.099453 4.301317,-0.736804 7.102033,-1.414792c26.920896,-6.528578 56.069,-3.496879 91.377463,9.504668c4.551619,1.675722 13.443437,4.630424 24.519935,8.146553c29.767785,9.450129 58.733629,13.552279 77.778498,11.013566c26.781164,-3.568528 46.45422,-14.406715 57.807752,-31.847268c4.591716,-7.06006 6.805558,-16.460998 3.025502,-12.859319"/>
	  	<path stroke="#FFFFFF" stroke-width="1" fill="#6c6eec" d="m118.793096,101.089766c-7.654155,0.474689 -16.378335,2.994334 -13.434883,3.880791c0.337406,0.101785 3.54276,-0.036087 7.123272,-0.307206c29.734175,-2.244825 43.622078,0.716197 70.511899,15.034594c18.589168,9.899995 23.427283,12.418715 27.904398,14.526593c43.349558,20.419954 92.662703,21.626571 120.20374,2.939741c8.803222,-5.972938 16.197834,-17.891055 16.512825,-26.610342c0.152186,-4.205578 -1.285917,-3.871537 -4.979684,1.1585c-23.094596,31.448839 -69.999891,35.11403 -132.322033,10.340447c-5.151926,-2.047732 -13.496229,-5.390912 -18.544338,-7.429391c-25.765528,-10.40707 -50.228623,-14.942987 -72.975196,-13.533725"/>
	</g>
</svg>